<?xml version="1.0" standalone="no"?>
<!DOCTYPE svg PUBLIC "-//W3C//DTD SVG 20010904//EN"
 "http://www.w3.org/TR/2001/REC-SVG-20010904/DTD/svg10.dtd">
<svg version="1.0" xmlns="http://www.w3.org/2000/svg"
 width="2000.000000pt" height="2000.000000pt" viewBox="0 0 2000.000000 2000.000000"
 preserveAspectRatio="xMidYMid meet">

<g transform="translate(0.000000,2000.000000) scale(0.100000,-0.100000)"
fill="#000000" stroke="none">
<path d="M9650 19993 c-1861 -66 -3629 -633 -5175 -1659 -2503 -1660 -4131
-4359 -4424 -7334 -37 -371 -45 -550 -45 -995 -1 -531 22 -883 84 -1350 246
-1821 998 -3550 2163 -4975 65 -80 175 -210 245 -290 166 -192 694 -718 907
-904 1090 -953 2318 -1635 3701 -2056 1532 -466 3169 -553 4754 -254 1580 298
3055 970 4330 1973 979 769 1836 1758 2461 2838 249 431 449 843 634 1308 479
1202 715 2425 715 3710 0 2161 -696 4255 -1989 5980 -1153 1539 -2722 2717
-4506 3383 -1226 458 -2547 672 -3855 625z m420 -543 c96 -5 263 -14 370 -20
247 -13 372 -26 469 -51 244 -62 375 -214 400 -469 29 -280 -85 -522 -293
-624 -133 -65 -161 -70 -461 -72 l-270 -1 -7 -84 c-3 -46 -12 -187 -18 -314
-9 -173 -16 -236 -27 -254 -15 -24 -16 -24 -137 -17 -202 11 -448 34 -458 44
-6 6 5 256 26 638 20 346 40 726 46 844 14 263 24 366 40 385 8 10 28 13 78 9
37 -2 146 -9 242 -14z m-1156 -86 c21 -21 18 -1 91 -509 35 -247 89 -621 119
-830 64 -447 68 -486 57 -503 -11 -18 -46 -25 -324 -63 -174 -24 -243 -30
-255 -22 -14 8 -30 100 -84 469 -174 1189 -196 1348 -188 1369 11 29 24 34
160 51 63 8 169 23 235 33 152 24 170 25 189 5z m3474 -225 c205 -63 694 -228
789 -267 142 -58 261 -164 317 -282 27 -59 31 -76 34 -186 5 -133 -4 -191 -45
-293 -58 -147 -158 -263 -283 -331 l-65 -35 -190 0 -190 1 -180 57 c-99 31
-188 57 -197 57 -19 0 -17 5 -132 -330 -104 -305 -102 -300 -121 -300 -30 0
-506 163 -528 180 -20 16 -20 21 -9 71 23 99 508 1595 544 1676 19 44 21 45
56 38 21 -3 110 -29 200 -56z m-5547 -351 c17 -46 114 -318 214 -606 101 -287
192 -539 202 -560 13 -27 24 -36 40 -35 12 1 169 54 350 116 365 126 460 155
472 141 5 -5 41 -105 81 -223 61 -179 70 -215 59 -226 -8 -7 -68 -32 -134 -55
-1262 -443 -1194 -420 -1243 -420 -29 0 -35 5 -52 43 -23 53 -564 1607 -580
1666 -9 35 -9 46 2 57 7 7 96 43 198 80 249 90 290 103 327 103 30 1 33 -2 64
-81z m7674 -521 c192 -107 305 -178 318 -199 8 -12 0 -37 -38 -110 -174 -336
-833 -1478 -871 -1509 -14 -12 -34 -5 -138 49 -159 82 -357 202 -370 225 -13
21 -16 15 282 542 527 930 620 1085 652 1085 9 0 83 -37 165 -83z m-8970 -14
c41 -58 245 -398 577 -968 288 -493 328 -565 328 -591 0 -21 -129 -106 -369
-243 -93 -53 -127 -68 -137 -60 -24 20 -109 160 -421 694 -360 616 -461 791
-496 861 l-26 51 22 21 c50 45 451 281 479 282 4 0 23 -21 43 -47z m10110
-694 c22 -16 113 -98 202 -181 131 -122 162 -155 158 -172 -5 -19 -101 -677
-140 -955 -8 -58 -15 -118 -15 -135 l0 -30 31 30 c18 16 145 153 284 304 139
151 271 293 293 314 l41 39 34 -26 c52 -39 232 -205 311 -285 69 -70 69 -71
53 -96 -23 -35 -139 -164 -502 -562 -171 -186 -375 -411 -454 -499 -198 -219
-273 -295 -291 -295 -17 0 -161 123 -320 273 l-99 93 20 154 c17 134 123 895
133 958 2 12 0 22 -5 22 -4 0 -94 -93 -200 -207 -366 -396 -431 -463 -445
-463 -27 0 -404 349 -404 374 0 12 112 147 234 281 935 1026 1000 1095 1025
1095 9 0 34 -14 56 -31z m-11274 -126 c100 -102 854 -911 1037 -1113 57 -63
109 -126 115 -139 11 -23 4 -32 -128 -159 -184 -177 -271 -252 -294 -252 -10
0 -61 44 -113 98 -123 126 -348 368 -366 393 -7 10 -18 19 -24 19 -28 0 -418
-359 -418 -385 0 -12 142 -173 308 -349 94 -99 162 -183 162 -198 0 -15 -100
-116 -251 -255 -188 -171 -170 -161 -220 -116 -38 34 -1127 1202 -1208 1295
l-33 38 22 27 c25 32 243 238 343 325 l68 59 28 -20 c15 -11 114 -112 220
-225 106 -114 197 -206 202 -206 5 0 101 86 214 192 186 175 203 193 191 210
-8 11 -72 83 -142 160 -161 176 -254 288 -254 303 0 15 285 295 359 353 29 23
60 42 70 42 9 0 60 -44 112 -97z m6071 -383 c484 -33 861 -93 1313 -209 965
-250 1847 -690 2635 -1315 391 -310 849 -774 1163 -1179 282 -363 485 -681
698 -1092 398 -768 619 -1485 746 -2410 24 -179 26 -219 30 -720 6 -666 -2
-803 -78 -1265 -222 -1355 -843 -2622 -1786 -3645 -906 -982 -2142 -1716
-3433 -2040 -496 -125 -931 -188 -1405 -205 -651 -23 -962 -5 -1510 86 -692
115 -1351 331 -1994 653 -1900 953 -3281 2735 -3725 4804 -117 547 -148 858
-150 1507 0 357 3 481 17 625 47 473 120 867 242 1301 280 995 811 1964 1503
2744 120 135 405 421 552 554 1063 964 2400 1579 3835 1765 83 11 215 25 295
31 80 5 163 12 185 13 102 9 730 6 867 -3z m7329 -1802 c339 -548 549 -897
549 -913 0 -23 -187 -155 -292 -206 -46 -22 -48 -22 -68 -4 -11 10 -124 184
-251 387 -128 203 -237 372 -244 375 -21 7 -205 -96 -205 -116 0 -4 79 -137
176 -297 97 -159 196 -326 221 -371 l44 -81 -43 -35 c-60 -49 -257 -167 -279
-167 -28 0 -105 114 -408 603 -40 64 -79 117 -85 117 -16 0 -178 -96 -218
-131 l-33 -27 24 -48 c12 -27 110 -193 216 -369 106 -176 204 -342 216 -368
l24 -49 -35 -32 c-37 -34 -313 -206 -330 -206 -13 0 -56 66 -407 633 -313 504
-423 690 -423 713 0 19 105 87 790 512 636 395 766 472 796 472 18 0 66 -71
265 -392z m-15032 165 c41 -13 106 -42 145 -65 96 -56 233 -194 272 -273 29
-59 29 -62 29 -235 l0 -175 -46 -95 c-25 -53 -83 -160 -128 -238 -46 -79 -81
-149 -78 -156 6 -14 87 -69 362 -243 208 -131 197 -116 150 -205 -50 -95 -209
-354 -244 -397 l-27 -33 -55 27 c-57 29 -357 208 -954 570 -475 287 -595 364
-595 379 0 15 208 365 412 691 95 152 178 273 210 306 157 163 339 210 547
142z m14335 -8989 c77 -20 156 -60 156 -79 0 -22 -75 -166 -173 -335 -74 -126
-88 -145 -108 -143 -13 1 -58 5 -99 9 -87 8 -131 -8 -186 -68 -102 -110 -116
-191 -42 -253 54 -45 86 -26 323 190 173 157 286 243 390 295 107 53 161 62
299 50 151 -13 228 -50 341 -164 133 -134 179 -246 179 -436 0 -137 -22 -228
-88 -365 -87 -179 -254 -401 -378 -504 -80 -66 -186 -119 -263 -131 -141 -23
-295 -6 -410 44 -72 32 -96 52 -88 74 14 39 218 394 245 426 34 41 45 43 145
19 61 -14 80 -15 126 -4 100 22 179 92 223 196 21 50 18 133 -6 172 -31 52
-61 66 -129 61 -76 -5 -120 -34 -300 -194 -280 -250 -418 -324 -601 -324 -201
0 -364 102 -455 285 l-40 80 0 155 c1 142 3 160 27 220 80 205 201 393 348
541 85 87 119 113 180 143 135 66 240 76 384 40z m-13489 -485 c423 -650 475
-750 475 -922 0 -278 -297 -533 -586 -503 -88 9 -179 39 -244 80 -30 19 -57
33 -61 31 -3 -3 -9 -39 -12 -82 -3 -43 -15 -105 -26 -138 -37 -104 -317 -612
-355 -644 -8 -7 -20 -10 -26 -6 -24 15 -350 520 -350 542 0 28 42 113 195 398
131 242 155 299 155 361 0 46 -20 106 -39 118 -15 9 -46 -8 -245 -139 -200
-130 -371 -235 -385 -235 -19 0 -235 315 -297 434 -28 55 -28 55 -9 77 16 18
343 238 630 424 28 18 161 105 297 193 236 154 503 324 578 369 l35 21 40 -43
c22 -24 126 -175 230 -336z m12320 -1081 c113 -37 235 -120 235 -160 0 -30
-360 -388 -389 -388 -12 0 -39 9 -60 20 -94 47 -194 31 -279 -45 -83 -75 -107
-161 -57 -210 45 -46 70 -38 378 118 364 185 382 191 562 192 l141 0 79 -39
c61 -30 98 -57 155 -115 112 -113 168 -240 177 -401 6 -118 -13 -214 -62 -314
-109 -222 -392 -489 -643 -609 l-87 -42 -155 0 c-148 0 -158 1 -225 29 -88 37
-179 90 -224 131 -31 29 -34 36 -24 56 13 29 226 262 311 341 69 64 64 64 157
9 56 -34 65 -36 146 -36 81 0 89 2 145 36 72 44 129 116 145 182 9 41 9 55 -6
92 -25 67 -54 85 -136 85 -66 0 -72 -2 -310 -121 -133 -66 -276 -131 -317
-145 -157 -51 -327 -49 -438 6 -82 40 -194 153 -234 234 -71 145 -67 334 9
484 76 148 231 325 391 446 235 176 423 227 615 164z m-11249 -240 c284 -244
928 -823 1003 -901 l34 -36 -59 -73 c-32 -40 -95 -110 -139 -156 l-80 -83 -79
66 c-44 36 -192 166 -330 288 -138 122 -264 233 -280 247 l-29 24 -78 -84
c-43 -47 -79 -90 -79 -95 0 -6 122 -121 271 -255 148 -135 292 -265 320 -290
27 -25 49 -50 49 -57 0 -24 -241 -293 -262 -293 -13 0 -68 45 -338 280 -124
108 -249 215 -279 239 l-54 42 -44 -43 c-44 -42 -153 -179 -153 -190 0 -4 100
-96 223 -205 332 -296 477 -433 477 -452 0 -32 -256 -321 -285 -321 -20 0
-142 105 -659 564 -376 335 -516 466 -516 481 0 26 -10 14 425 505 628 711
800 900 816 900 4 0 60 -46 125 -102z m9703 -1049 c151 -39 325 -154 431 -286
182 -226 287 -485 297 -733 6 -150 -14 -254 -76 -384 -93 -198 -225 -318 -496
-451 -224 -110 -396 -154 -554 -142 -111 9 -183 30 -308 92 -89 44 -127 70
-193 132 -133 125 -223 256 -300 437 -65 152 -84 247 -84 421 0 138 2 156 28
230 90 262 272 449 578 595 236 112 466 143 677 89z m-8001 -230 c543 -277
639 -334 746 -450 120 -130 176 -279 176 -469 0 -187 -44 -353 -145 -548 -180
-346 -368 -509 -642 -557 -127 -22 -178 -19 -315 20 -106 30 -178 62 -523 234
-408 204 -495 252 -495 272 0 13 791 1555 827 1612 17 27 30 37 48 37 14 0
159 -68 323 -151z m5932 -600 c240 -39 409 -258 410 -529 0 -160 -51 -273
-179 -391 -47 -43 -83 -80 -80 -82 2 -2 31 -16 64 -32 45 -21 87 -55 165 -134
105 -106 317 -361 387 -467 35 -53 36 -57 19 -70 -22 -15 -206 -60 -431 -104
-88 -17 -170 -33 -182 -35 -17 -4 -47 26 -169 173 -357 427 -390 457 -492 450
-43 -3 -47 -5 -50 -30 -2 -15 24 -164 57 -330 75 -383 72 -364 58 -376 -13
-11 -154 -43 -401 -93 -154 -30 -159 -31 -177 -13 -18 19 -95 378 -294 1379
-91 458 -88 443 -67 454 41 22 928 203 1107 226 129 16 175 17 255 4z m-2370
-260 c218 -28 402 -123 516 -268 117 -147 201 -368 147 -385 -40 -12 -449 -76
-489 -76 -15 0 -28 17 -53 71 -63 136 -159 199 -304 199 -58 0 -83 -5 -132
-29 -164 -77 -233 -257 -222 -581 4 -118 9 -156 27 -204 29 -75 77 -128 148
-163 48 -24 69 -27 147 -28 79 0 97 3 147 28 70 34 107 77 159 184 22 45 47
87 55 94 20 16 89 -3 319 -90 178 -66 180 -68 183 -98 4 -35 -35 -139 -82
-223 -39 -70 -163 -200 -240 -252 -129 -88 -256 -121 -471 -121 -288 0 -528
66 -686 190 -115 90 -227 259 -279 419 -90 282 -51 689 91 941 55 98 189 234
285 291 181 108 419 140 734 101z"/>
<path d="M10326 18963 c-4 -27 -9 -106 -13 -176 -5 -105 -4 -131 8 -138 19
-12 174 -11 240 1 92 17 140 67 147 154 5 67 -22 132 -68 159 -35 21 -173 47
-251 47 l-56 0 -7 -47z"/>
<path d="M12552 18460 c-29 -87 -52 -166 -52 -174 0 -10 28 -24 83 -42 107
-35 216 -38 267 -8 54 31 80 77 80 141 0 101 -39 142 -194 202 -57 23 -111 41
-118 41 -9 0 -32 -56 -66 -160z"/>
<path d="M8147 15043 c-4 -141 -7 -779 -7 -1418 0 -639 -3 -1324 -7 -1523 l-6
-362 -842 0 c-463 0 -1261 -3 -1773 -7 l-932 -6 0 -1767 0 -1767 1772 -7 c975
-4 1774 -9 1776 -10 1 -2 6 -798 10 -1769 6 -1428 9 -1768 20 -1779 17 -17
3499 -25 3516 -8 8 8 12 538 16 1768 3 966 9 1762 13 1769 4 7 22 15 40 18 19
4 811 10 1763 13 951 4 1735 11 1742 15 9 7 12 369 12 1757 l0 1749 -22 13
c-18 9 -412 13 -1770 17 -1414 5 -1749 8 -1760 19 -11 11 -14 349 -19 1775 -4
969 -7 1763 -8 1765 0 1 -795 2 -1764 2 l-1764 0 -6 -257z"/>
<path d="M2398 14793 c-41 -43 -148 -196 -148 -212 0 -8 273 -171 298 -178 23
-6 44 21 90 113 51 102 66 157 52 199 -14 44 -53 91 -91 110 -16 9 -55 15 -91
15 -63 0 -64 -1 -110 -47z"/>
<path d="M3230 5524 c-109 -68 -169 -116 -170 -136 0 -17 111 -169 168 -229
90 -96 145 -109 230 -57 38 24 62 70 62 122 0 60 -161 336 -200 344 -8 1 -49
-19 -90 -44z"/>
<path d="M13923 3055 c-138 -43 -233 -153 -249 -286 -22 -194 165 -549 340
-646 45 -25 61 -28 131 -27 47 1 100 9 130 19 150 52 260 209 240 342 -11 73
-62 208 -123 328 -72 138 -157 231 -246 264 -65 24 -158 27 -223 6z"/>
<path d="M6342 2778 c-30 -50 -410 -791 -414 -807 -4 -20 161 -106 242 -127
173 -44 292 43 424 311 69 139 97 231 98 316 1 86 -25 142 -97 207 -47 44
-197 132 -223 132 -6 0 -19 -15 -30 -32z"/>
<path d="M11785 2264 c-44 -8 -102 -20 -130 -27 -59 -14 -58 -5 -17 -197 27
-125 27 -125 57 -128 40 -4 252 50 311 80 65 32 87 65 91 135 4 68 -9 98 -56
130 -41 28 -128 30 -256 7z"/>
</g>
</svg>
