<?xml version="1.0" standalone="no"?>
<!DOCTYPE svg PUBLIC "-//W3C//DTD SVG 20010904//EN"
 "http://www.w3.org/TR/2001/REC-SVG-20010904/DTD/svg10.dtd">
<svg version="1.0" xmlns="http://www.w3.org/2000/svg"
 width="617.000000pt" height="326.000000pt" viewBox="0 0 617.000000 326.000000"
 preserveAspectRatio="xMidYMid meet">

<g transform="translate(0.000000,326.000000) scale(0.100000,-0.100000)"
fill="#000000" stroke="none">
<path d="M2115 2583 c-132 -313 -360 -852 -386 -910 l-18 -43 -158 0 c-87 0
-234 -2 -328 -4 -93 -3 -359 -9 -590 -13 -486 -9 -442 -14 285 -32 250 -7 460
-14 467 -16 6 -2 98 -5 204 -6 l192 -1 25 47 c13 26 78 167 144 313 66 146
138 304 160 351 22 47 44 96 49 109 5 12 13 22 18 22 5 0 13 -10 16 -22 7 -23
126 -390 230 -708 117 -359 326 -1000 354 -1087 16 -50 33 -99 38 -108 11 -18
5 -28 190 360 132 275 318 662 336 695 l13 25 344 6 c2314 43 2280 42 1560 52
-305 4 -663 9 -795 12 -132 3 -449 7 -705 11 l-465 5 -51 -98 c-28 -54 -95
-183 -149 -288 -54 -104 -131 -252 -171 -329 -39 -76 -74 -134 -78 -128 -3 5
-58 162 -122 348 -178 520 -214 625 -329 959 -59 171 -130 379 -158 463 -29
83 -54 152 -58 152 -3 0 -32 -62 -64 -137z"/>
<path d="M1454 2387 c-70 -20 -130 -65 -159 -119 -23 -42 -27 -59 -23 -106 7
-86 54 -121 222 -168 60 -17 96 -43 96 -70 0 -8 -13 -29 -29 -45 -24 -23 -38
-29 -73 -29 -60 1 -98 36 -98 91 0 21 -3 22 -61 15 -34 -3 -77 -6 -95 -6 -32
0 -34 -2 -34 -32 0 -102 52 -169 145 -188 85 -18 217 -8 282 20 122 52 194
197 147 295 -23 49 -76 80 -187 111 -54 15 -108 35 -120 45 l-22 19 34 31 c28
26 39 30 68 26 44 -8 60 -21 68 -59 7 -30 8 -30 52 -24 25 3 68 6 94 6 49 0
49 0 49 33 0 17 -9 51 -19 74 -29 63 -81 86 -201 89 -53 2 -113 -2 -136 -9z"/>
<path d="M2696 2382 c-2 -4 -20 -102 -40 -217 -20 -116 -45 -259 -56 -320 -11
-60 -20 -111 -20 -112 0 -2 45 -3 99 -3 l99 0 6 28 c3 15 13 68 21 117 24 138
8 125 150 125 l123 0 6 38 c4 20 9 49 12 65 l6 27 -121 0 c-66 0 -122 3 -124
8 -3 4 0 31 5 60 l11 52 142 0 c161 0 151 -6 161 86 l7 54 -241 0 c-132 0
-243 -3 -246 -8z"/>
<path d="M3286 2368 c-3 -13 -7 -36 -9 -53 -3 -16 -25 -151 -51 -299 -25 -148
-46 -273 -46 -278 0 -4 121 -8 269 -8 l269 0 11 50 c6 28 11 62 11 75 l0 25
-164 0 c-91 0 -167 3 -169 8 -2 4 1 32 7 62 l11 55 156 3 156 2 7 50 c4 28 9
57 12 65 5 13 -16 15 -151 15 l-158 0 7 46 c3 25 8 50 12 55 3 5 79 9 169 9
184 0 168 -8 180 88 l7 52 -266 0 -266 0 -4 -22z"/>
<path d="M3936 2378 c-9 -32 -25 -142 -21 -146 2 -2 44 -4 94 -3 52 1 92 -3
96 -9 6 -9 -35 -272 -55 -350 -4 -19 -11 -59 -15 -87 l-7 -53 100 0 101 0 6
48 c3 26 10 67 15 92 5 25 19 99 30 165 12 66 24 136 28 155 l8 35 99 1 100 2
12 58 c7 33 12 69 13 82 l0 22 -300 0 c-232 0 -301 -3 -304 -12z"/>
<path d="M4620 2384 c0 -4 41 -92 91 -197 90 -188 90 -190 80 -236 -6 -25 -15
-75 -21 -111 -6 -36 -14 -75 -17 -87 -5 -23 -4 -23 96 -23 96 0 101 1 105 23
2 12 11 60 20 107 9 47 16 95 16 107 0 23 28 61 194 264 60 74 114 140 119
147 7 9 -14 12 -99 12 l-109 -1 -65 -86 c-102 -135 -98 -130 -110 -113 -5 8
-26 57 -47 108 l-36 92 -109 0 c-59 0 -108 -3 -108 -6z"/>
<path d="M682 1439 c-106 -34 -172 -117 -172 -216 0 -94 56 -142 215 -187 126
-35 152 -70 96 -127 -25 -24 -37 -29 -81 -29 -62 0 -100 30 -100 81 l0 31 -97
-7 c-54 -4 -102 -10 -106 -15 -14 -13 12 -121 37 -155 44 -58 84 -70 231 -70
115 0 136 3 182 24 105 47 180 161 171 260 -9 93 -70 139 -238 182 -47 11 -91
27 -99 34 -20 20 -6 64 25 75 62 24 118 2 129 -50 7 -34 7 -34 128 -24 l77 7
0 35 c0 61 -35 118 -88 144 -68 32 -221 36 -310 7z"/>
<path d="M3870 1441 c-81 -26 -111 -44 -162 -99 -82 -88 -118 -187 -118 -326
1 -141 45 -218 148 -256 81 -31 244 -26 317 10 61 30 122 89 157 156 l27 51
-85 29 c-95 32 -88 34 -126 -35 -23 -43 -74 -71 -126 -71 -35 0 -49 6 -73 29
-26 26 -29 36 -29 93 0 134 47 234 125 263 39 15 52 16 86 6 33 -10 44 -20 58
-52 10 -25 21 -37 31 -35 8 3 50 12 93 21 67 14 77 19 77 38 0 35 -45 122 -75
145 -65 51 -220 67 -325 33z"/>
<path d="M5265 1447 c-121 -40 -194 -123 -195 -221 0 -88 77 -155 223 -192
114 -28 145 -73 91 -128 -22 -21 -36 -26 -79 -26 -60 0 -90 24 -101 79 l-7 33
-96 -7 c-53 -4 -98 -9 -100 -11 -12 -11 2 -95 22 -134 17 -34 34 -51 72 -70
45 -23 62 -25 170 -25 137 0 186 11 247 58 66 50 100 113 105 194 4 60 2 72
-19 103 -32 47 -88 76 -210 110 -123 34 -139 50 -93 95 43 44 131 28 142 -25
3 -17 10 -33 15 -36 5 -3 50 -3 99 1 l89 7 0 47 c0 106 -71 153 -235 158 -63
2 -115 -2 -140 -10z"/>
<path d="M1230 1441 c0 -9 -23 -141 -80 -466 -16 -93 -30 -182 -30 -197 l0
-28 285 0 c157 0 285 1 285 3 1 1 7 35 14 75 8 49 9 72 2 72 -6 1 -86 0 -178
0 -91 0 -168 3 -171 7 -6 9 11 125 19 133 3 3 72 6 152 6 81 1 154 2 163 3 12
1 19 16 24 58 4 31 9 62 12 70 4 10 -26 13 -161 13 l-165 0 5 33 c14 85 -7 76
191 79 l177 3 7 35 c4 19 9 52 12 73 l6 37 -285 0 c-166 0 -284 -4 -284 -9z"/>
<path d="M1915 1413 c-4 -21 -13 -72 -20 -113 -8 -41 -23 -133 -35 -205 -12
-71 -27 -164 -35 -205 -7 -41 -16 -90 -19 -108 l-6 -33 107 3 107 3 12 60 c6
33 17 95 24 138 12 74 14 77 40 77 15 0 34 -8 42 -17 15 -18 98 -232 98 -253
0 -6 44 -10 123 -10 l124 0 -39 112 c-40 117 -69 172 -93 182 -25 9 -17 24 17
31 43 10 121 90 136 141 19 65 15 126 -11 165 -37 55 -72 62 -334 67 l-232 4
-6 -39z m345 -116 c36 -18 39 -69 6 -102 -22 -22 -33 -25 -101 -25 l-77 0 7
53 c11 81 17 87 83 87 31 0 68 -6 82 -13z"/>
<path d="M3340 1441 c0 -9 -57 -349 -89 -531 -12 -63 -23 -125 -25 -137 -3
-23 -2 -23 104 -23 l106 0 11 68 c6 37 32 187 57 335 25 147 46 274 46 282 0
12 -19 15 -105 15 -58 0 -105 -4 -105 -9z"/>
<path d="M4416 1428 c-12 -56 -28 -146 -56 -313 -16 -99 -37 -216 -45 -260 -8
-44 -14 -86 -15 -92 0 -10 64 -13 289 -13 l289 0 6 58 c4 31 9 65 12 75 5 16
-8 17 -170 17 -116 0 -177 4 -182 11 -9 15 16 129 30 131 6 0 76 2 156 4 80 1
148 3 152 3 4 1 12 27 18 58 7 32 15 63 17 70 4 10 -31 13 -162 13 l-167 0 7
48 c4 26 9 50 12 55 2 4 82 7 177 7 l172 0 12 58 c21 102 49 92 -268 92 l-280
0 -4 -22z"/>
</g>
</svg>
